<svg xmlns="http://www.w3.org/2000/svg" width="200.854" height="200.854" viewBox="0 0 200.854 200.854"><defs><style>.a{fill:#7fba4c;}</style></defs><g transform="translate(-3.75 -3.75)"><g transform="translate(3.75 3.75)"><path class="a" d="M104.177,3.75A100.427,100.427,0,1,0,204.6,104.177,100.542,100.542,0,0,0,104.177,3.75Zm55.666,79.966L95.7,147.855a10.567,10.567,0,0,1-7.417,3.073v4.343l-.093-4.343a10.542,10.542,0,0,1-7.454-3.2L48.381,114.183a10.489,10.489,0,0,1,15.1-14.566l24.945,25.855,56.591-56.589a10.488,10.488,0,1,1,14.831,14.833Z" transform="translate(-3.75 -3.75)"/></g></g></svg>