<svg xmlns="http://www.w3.org/2000/svg" width="160" height="44.364" viewBox="0 0 160 44.364"><defs><style>.a{fill:#73aa17;}.a,.aa,.ab,.ac,.ad,.ae,.af,.ag,.ah,.b,.c,.d,.e,.f,.g,.h,.i,.j,.k,.l,.m,.n,.o,.p,.q,.r,.s,.t,.u,.v,.w,.x,.y,.z{fill-rule:evenodd;}.b{fill:#b9bf1b;}.c{fill:#cfcf50;}.d{fill:#f3f1db;}.e{fill:#dae1e8;}.f{fill:#b0c6dc;}.g{fill:#6b9ec9;}.h{fill:#82a7d1;}.i{fill:#052971;}.j{fill:#00428e;}.k{fill:#b6cade;}.l{fill:#005ca4;}.m{fill:#7da8cc;}.n{fill:#fff;}.o{fill:#2c77b2;}.p{fill:#91b3d4;}.q{fill:#c4d4e2;}.r{fill:#0065a6;}.s{fill:#c2d3e0;}.t{fill:#004992;}.u{fill:#dfe7ed;}.v{fill:#8bb2d2;}.w{fill:#00539b;}.x{fill:#0064a5;}.y{fill:#edefd2;}.z{fill:#3880b9;}.aa{fill:#9cbad9;}.ab{fill:#eae9ba;}.ac{fill:#005a9c;}.ad{fill:#ced7e4;}.ae{fill:#e3e3a6;}.af{fill:#e4e29c;}.ag{fill:#d1cc4a;}.ah{fill:#aeb912;}</style></defs><g transform="translate(-179.787 -224.392)"><path class="a" d="M376.563,321.025v-.567a2.881,2.881,0,0,1,2.517-2.393h.419c1.826.247,3.084,2.566,4.293,3.775a21.08,21.08,0,0,0,12.238,5.354,1.7,1.7,0,0,1,.321.049c.123.025.271.049.419.074h1.554c.123-.025.271-.049.419-.074a1.25,1.25,0,0,1,.321-.049c6.539-.518,11.671-3.948,15.569-9.1,0,1.11-2.073,3.356-2.739,4.244a26.854,26.854,0,0,1-10.19,6.884c-1.875.469-3.726.814-5.675,1.11H392.9c-6.242-.419-11.473-3.479-15.767-7.9a4.172,4.172,0,0,1-.568-1.406" transform="translate(-129.342 -61.571)"/><path class="b" d="M427.107,344.848h.419v.074c-.148-.025-.3-.049-.419-.074" transform="translate(-162.565 -79.176)"/><path class="c" d="M428.331,344.922v-.074h1.554v.074h-1.554" transform="translate(-163.369 -79.176)"/><path class="b" d="M432.867,344.922v-.074h.419c-.148.025-.3.049-.419.074" transform="translate(-166.351 -79.176)"/><path class="d" d="M426.171,344.676c.321-.025.321-.025.321.049a1.7,1.7,0,0,0-.321-.049" transform="translate(-161.95 -79.053)"/><path class="d" d="M434.091,344.725c0-.074,0-.074.321-.049a1.252,1.252,0,0,0-.321.049" transform="translate(-167.155 -79.053)"/><path class="e" d="M185.4,311.944h1.234v.1H185.4v-.1" transform="translate(-3.691 -57.548)"/><path class="e" d="M309.963,311.944h.345v.1h-.345v-.1" transform="translate(-85.565 -57.548)"/><path class="e" d="M334.947,311.944h.913v.1h-.913v-.1" transform="translate(-101.988 -57.548)"/><path class="f" d="M391.611,311.993a4.052,4.052,0,0,1,.568-.049v.1a4.814,4.814,0,0,0-.568-.049" transform="translate(-139.233 -57.548)"/><path class="g" d="M393.267,312.043v-.1h2.467v.1h-2.467" transform="translate(-140.322 -57.548)"/><path class="f" d="M400.467,312.043v-.1c.247,0,.493.025.74.049-.247,0-.493.025-.74.049" transform="translate(-145.054 -57.548)"/><path class="f" d="M439.563,311.993a3.039,3.039,0,0,1,.494-.049v.1a3.708,3.708,0,0,0-.494-.049" transform="translate(-170.752 -57.548)"/><path class="g" d="M441,312.043v-.1h.345v.1H441" transform="translate(-171.699 -57.548)"/><path class="f" d="M442.011,312.043v-.1a3.711,3.711,0,0,1,.493.049,3.036,3.036,0,0,0-.493.049" transform="translate(-172.361 -57.548)"/><path class="f" d="M477.291,311.993a3.039,3.039,0,0,1,.493-.049v.1a3.705,3.705,0,0,0-.493-.049" transform="translate(-195.551 -57.548)"/><path class="h" d="M478.731,312.043v-.1h.321v.1h-.321" transform="translate(-196.498 -57.548)"/><path class="f" d="M479.667,312.043v-.1a3.711,3.711,0,0,1,.494.049,3.037,3.037,0,0,0-.494.049" transform="translate(-197.113 -57.548)"/><path class="e" d="M623.883,311.944h.419v.1h-.419v-.1" transform="translate(-291.907 -57.548)"/><path class="i" d="M377.125,282.415a1.7,1.7,0,0,0-.321-.049,1.516,1.516,0,0,0-.321-.025c-2.912-.395-5.5-1.036-6.514-4.1-.1-.493-.173-.962-.247-1.431v-1.48a11.32,11.32,0,0,1,1.135-4.318c2.023-3.06,4.491-3.553,7.994-4.022h.419a6.046,6.046,0,0,1,.666-.049h.074c.888,0,1.8.025,2.714.049h.913c4.022.444,6.761,1.53,7.057,6.045v.419a9.068,9.068,0,0,1-3.158,7.131c-.469.247-.938.518-1.406.79a18.531,18.531,0,0,1-4.318.962,1.3,1.3,0,0,0-.321.025,2.172,2.172,0,0,0-.419.049H381c-.247-.025-.493-.049-.74-.049h-2.467a4.047,4.047,0,0,0-.567.049h-.1" transform="translate(-124.846 -27.97)"/><path class="i" d="M434,281.5a2.462,2.462,0,0,1-.049-.395c.419-4.244.839-8.488,1.283-12.732.395-1.012,1.382-1.11,2.369-1.209h1.234c.666.1,1.752.1,1.949.888a30,30,0,0,1,4.318-1.11h.395c.345,0,.716.025,1.086.049h1.382a13.192,13.192,0,0,1,3.874.888,3.216,3.216,0,0,1,1.628,3.084c-.345,3.356-.666,6.736-.987,10.116-.469,1.086-1.258,1.11-2.369,1.332a3.706,3.706,0,0,0-.493-.049h-.321a3.036,3.036,0,0,0-.493.049c-.568-.049-1.727-.247-1.9-.913v-.395l.962-10.141c-.1-1.48-.321-1.6-1.777-1.875a1.934,1.934,0,0,0-.345-.049h-.493a3.037,3.037,0,0,0-.494.049,9.33,9.33,0,0,0-4.219,1.332L439.5,281.378a3.728,3.728,0,0,1-2.295,1.036,3.706,3.706,0,0,0-.493-.049h-.346a3.035,3.035,0,0,0-.493.049,5.406,5.406,0,0,1-1.752-.568A2.981,2.981,0,0,1,434,281.5" transform="translate(-167.061 -27.97)"/><path class="j" d="M185.187,311.872h1.48a.365.365,0,0,0-.173.025h-1.234a.091.091,0,0,0-.074-.025" transform="translate(-3.549 -57.501)"/><path class="i" d="M302.658,270.061a3.473,3.473,0,0,0-.493-.025c-2.122-.345-1.628-.938-1.505-2.986.345-3.109.716-6.218,1.086-9.3l-.074-.518h-2.295c-1.16-.567-.173-2.221.74-2.541.617-.025,1.258-.049,1.9-.049.888-2-.666-5.231,1.727-6.218.395-.074.814-.148,1.234-.2h1.234a2.215,2.215,0,0,1,1.727.666,49.458,49.458,0,0,1-.592,5.724c.123.025.271.049.419.074.74-.025,1.48-.049,2.221-.049l.37.148c.247.913.123,2.2-1.036,2.418-.74,0-1.48,0-2.221.025-.469,3.923-.938,7.846-1.406,11.794-.469.765-1.283.864-2.122,1.012a3.143,3.143,0,0,0-.493.025h-.419" transform="translate(-78.261 -15.665)"/><path class="i" d="M331.54,282.365c-.691-.049-1.406-.123-1.727-.765a2.746,2.746,0,0,1-.049-.419c.469-4.293.493-8.266,2.665-11.967,1.382-1.6,3.01-2.048,5.108-2.221h.419c.3-.025.592-.049.913-.049H344.3a.713.713,0,0,1,.518.592,4.18,4.18,0,0,0-.025.568,2.025,2.025,0,0,1-1.234,1.406h-.419a6,6,0,0,0-.666.025h-1.308c-.321,0-.617.025-.913.049h-.074a2.174,2.174,0,0,0-.419.049c-2,.37-2.418.79-3.38,2.541a36.3,36.3,0,0,0-1.209,8.463,2.735,2.735,0,0,0-.049.469c-.37,1.135-1.6,1.135-2.665,1.258h-.913" transform="translate(-98.58 -27.97)"/><path class="i" d="M616.642,270.061a3.472,3.472,0,0,0-.493-.025c-1.48-.247-1.629-.321-1.629-1.727.395-3.676.814-7.328,1.234-10.98-.814-.025-1.6-.049-2.393-.049-.321-.148-.37-.345-.493-.666v-.395a1.75,1.75,0,0,1,1.234-1.53c.617-.025,1.258-.049,1.9-.049a52.829,52.829,0,0,0,.716-5.354c.37-.913,1.406-.913,2.245-1.061H620.2a2.443,2.443,0,0,1,1.727.617,50.875,50.875,0,0,1-.592,5.774c.123.025.271.049.419.074.74-.025,1.48-.049,2.221-.049l.37.148a1.808,1.808,0,0,1-1.036,2.443h-1.628a.356.356,0,0,0-.173.049,2.174,2.174,0,0,0-.419.049c-.1.247-1.333,11.2-1.505,11.918a2.94,2.94,0,0,1-2.023.79,3.142,3.142,0,0,0-.493.025h-.42" transform="translate(-284.666 -15.665)"/><path class="i" d="M179.787,268.96v-.493l1.258-13.176c.666-4.022,1.9-7.131,6.44-7.378h.395a4.789,4.789,0,0,1,.592-.049h4.515c.247,0,.493.025.74.049h.419c2.073.222,3.652.518,5.206,1.949.271.469.543.938.839,1.431.1.568.2,1.135.321,1.727V254.4a8.515,8.515,0,0,1-4.392,6.711c-.888.321-1.777.642-2.64.987-1.357.271-2.739.469-4.121.617a1.7,1.7,0,0,0-.321-.049,2.088,2.088,0,0,0-.419.1c-.271,0-.543,0-.814.025h-.074c-.345-.025-.666-.025-.987-.025-.37.025-.74.049-1.086.074-.271,2.023-.518,4.071-.765,6.119a2.868,2.868,0,0,1-1.777.839h-1.48c-.74-.1-1.505-.123-1.851-.839" transform="translate(0 -15.428)"/><path class="e" d="M258.411,311.512h.567v.074c-.2-.025-.395-.049-.567-.074" transform="translate(-51.68 -57.264)"/><path class="k" d="M260.067,311.586v-.074h2.64v.074h-2.64" transform="translate(-52.768 -57.264)"/><path class="e" d="M267.771,311.586v-.074h6.415l-6.415.074" transform="translate(-57.832 -57.264)"/><path class="e" d="M516.171,311.512h.568v.074c-.2-.025-.395-.049-.568-.074" transform="translate(-221.107 -57.264)"/><path class="k" d="M517.827,311.586v-.074h2.64v.074h-2.64" transform="translate(-222.196 -57.264)"/><path class="e" d="M525.531,311.586v-.074h6.415l-6.415.074" transform="translate(-227.259 -57.264)"/><path class="i" d="M244.213,282.217a1.933,1.933,0,0,0-.345-.049c-2.912-.148-5.8-1.061-6.835-4.071-.074-.592-.148-1.16-.222-1.727v-.74c.173-4.022,1.7-6.687,5.576-8.068a24.512,24.512,0,0,1,3.454-.617,2.747,2.747,0,0,1,.419.049,4.047,4.047,0,0,1,.568-.049h.1c.864,0,1.727.025,2.615.049h.493a2.172,2.172,0,0,1,.419-.049c2.714.345,5.206.469,6.415,3.158.049.321.1.666.173,1.012v.814c-.321,2.961-1.678,3.6-4.441,4h-4.441c-1.8,0-3.578,0-5.354.025a1.223,1.223,0,0,0-.321.1c-.123.123-.123.123-.123.37v.74c.469,1.752,1.949,2.147,3.578,2.467a1.519,1.519,0,0,1,.321.025c.79-.025,1.579-.025,2.393-.025h5.6a1.417,1.417,0,0,1-.419,2.591h-9.623" transform="translate(-37.482 -27.97)"/><path class="i" d="M501.973,282.217a1.933,1.933,0,0,0-.345-.049c-2.912-.148-5.8-1.061-6.835-4.071-.074-.568-.148-1.11-.222-1.653v-.888a10.489,10.489,0,0,1,1.8-5.626c2.221-2.1,4.244-2.591,7.229-2.986a2.746,2.746,0,0,1,.419.049,4.046,4.046,0,0,1,.568-.049h.1c.864,0,1.727.025,2.615.049h1.16c3.109.37,5.823.666,6.341,4.195v.666c-.346,2.986-1.579,3.627-4.441,4.071H509.7c-1.258-.025-2.517-.049-3.775-.049l-5.354.074a1.223,1.223,0,0,0-.321.1c-.345.345-.074,1.258,0,1.678,1.012,1.308,1.875,1.505,3.454,1.9a1.519,1.519,0,0,1,.321.025c.79-.025,1.579-.025,2.393-.025h5.6a1.417,1.417,0,0,1-.419,2.591h-9.623" transform="translate(-206.909 -27.97)"/><path class="e" d="M578.523,310.792h1.16v.025c-.395-.025-.79-.025-1.16-.025" transform="translate(-262.091 -56.791)"/><path class="e" d="M582.627,310.722l6.662-.074v.049c-2.221,0-4.441,0-6.662.025" transform="translate(-264.789 -56.697)"/><path class="i" d="M565.106,282v-.025c-.395-.049-.79-.074-1.16-.1h-.395a1.454,1.454,0,0,0-.345.049c-1.925-.271-3.652-.518-5.231-1.752a6.875,6.875,0,0,1-1.629-3.75v-1.16c.345-4.244,2.073-6.588,6.218-7.871a15.351,15.351,0,0,1,2.615-.345,1.455,1.455,0,0,1,.345-.049h7.057c.345-.025.716-.049,1.086-.049.789.642.691,1.431.049,2.27-.2.1-.37.2-.543.3h-4.367c-.641-.025-1.283-.049-1.9-.049-.173.025-.346.049-.494.074-2.986.493-3.7,1.727-4.367,4.466,0,2.147-.247,3.923,1.875,5.083l1.258.3a1.753,1.753,0,0,1,.345.025c1.332-.025,2.665-.025,4.022-.025h3.874c.395.1.518.395.617.74v.493A1.989,1.989,0,0,1,573,281.921h-.987l-6.662.074h-.247" transform="translate(-247.515 -27.97)"/><path class="g" d="M576.363,310.553a1.455,1.455,0,0,1,.345-.049v.1a1.933,1.933,0,0,0-.345-.049" transform="translate(-260.672 -56.602)"/><path class="l" d="M577.371,310.6v-.1h.395v.1h-.395" transform="translate(-261.334 -56.602)"/><path class="j" d="M578.523,310.6v-.1c.37.025.765.049,1.16.1h-1.16" transform="translate(-262.091 -56.602)"/><path class="l" d="M602.067,310.7v-.049h.987c-.345,0-.666.025-.987.049" transform="translate(-277.567 -56.697)"/><path class="m" d="M329.735,308.488a2.745,2.745,0,0,0,.049.419c-.074,0-.074,0-.049-.419" transform="translate(-98.552 -55.277)"/><path class="k" d="M471.641,308.272v.395c-.074,0-.074-.395,0-.395" transform="translate(-191.8 -55.135)"/><path class="n" d="M391.1,284.933c-.419-.025-.839-.025-1.234-.025a2.742,2.742,0,0,0-.419-.049c-1.974-.148-2.961-1.308-3.232-3.282a1.867,1.867,0,0,1,.025-.37v-.715a2.257,2.257,0,0,1-.025-.395c.321-3.232,1.357-4.959,4.639-5.3h1.48c2.492.37,3.01,1.012,3.528,3.405v1.357a11.907,11.907,0,0,1-.568,2.788c-.987,1.9-2.171,2.295-4.195,2.591" transform="translate(-135.684 -33.128)"/><path class="o" d="M263.451,303.857a1.251,1.251,0,0,1,.321-.049v.074a1.519,1.519,0,0,0-.321-.025" transform="translate(-54.993 -52.201)"/><path class="p" d="M264.387,303.882v-.074c.79,0,1.579.025,2.393.049-.814,0-1.6,0-2.393.025" transform="translate(-55.608 -52.201)"/><path class="o" d="M521.211,303.857a1.251,1.251,0,0,1,.321-.049v.074a1.518,1.518,0,0,0-.321-.025" transform="translate(-224.42 -52.201)"/><path class="p" d="M522.147,303.882v-.074c.79,0,1.579.025,2.393.049-.814,0-1.6,0-2.393.025" transform="translate(-225.035 -52.201)"/><path class="p" d="M582.123,303.137a1.459,1.459,0,0,1,.345-.049v.074a1.745,1.745,0,0,0-.345-.025" transform="translate(-264.458 -51.727)"/><path class="q" d="M583.131,303.162v-.074c1.332,0,2.665.025,4.022.049-1.357,0-2.69,0-4.022.025" transform="translate(-265.12 -51.727)"/><path class="k" d="M369.507,294.664h.074v.37l-.074-.37" transform="translate(-124.704 -46.19)"/><path class="m" d="M369.507,293.434v-.642h.074v.642h-.074" transform="translate(-124.704 -44.96)"/><path class="k" d="M494.382,292.072v.888h-.1v-.888h.1" transform="translate(-206.72 -44.486)"/><path class="h" d="M386.116,293.882a1.906,1.906,0,0,1-.049-.37h.074a1.869,1.869,0,0,0-.025.37" transform="translate(-135.589 -45.433)"/><path class="k" d="M236.622,292.288v.74h-.1v-.74h.1" transform="translate(-37.293 -44.628)"/><path class="k" d="M386.067,292.14v-.716h.074v.716h-.074" transform="translate(-135.589 -44.061)"/><path class="r" d="M512.067,293.082l5.354-.074v.074h-5.354" transform="translate(-218.41 -45.102)"/><path class="m" d="M527.691,293.082v-.074c1.258,0,2.517.025,3.775.049-1.258,0-2.517,0-3.775.025" transform="translate(-228.679 -45.102)"/><path class="k" d="M369.507,291.893c.025-.173.049-.321.074-.469v.469h-.074" transform="translate(-124.704 -44.061)"/><path class="s" d="M196.923,291.426c.345-.025.716-.049,1.086-.074v.074h-1.086" transform="translate(-11.264 -44.013)"/><path class="m" d="M200.091,291.426v-.074c.321,0,.642,0,.987.025-.345,0-.666.025-.987.049" transform="translate(-13.346 -44.013)"/><path class="s" d="M203.187,291.377c.271-.025.543-.025.814-.025v.074c-.271-.025-.543-.049-.814-.049" transform="translate(-15.381 -44.013)"/><path class="e" d="M205.563,291.426v-.074h.419c-.148.025-.3.049-.419.074" transform="translate(-16.943 -44.013)"/><path class="m" d="M386.067,290.667a1.918,1.918,0,0,1,.049-.395,2.259,2.259,0,0,0,.025.395h-.074" transform="translate(-135.589 -43.303)"/><path class="t" d="M205.563,291.163a2.088,2.088,0,0,1,.419-.1v.1h-.419" transform="translate(-16.943 -43.824)"/><path class="r" d="M206.787,291.163v-.1a1.7,1.7,0,0,1,.321.049,1.249,1.249,0,0,0-.321.049" transform="translate(-17.747 -43.824)"/><path class="o" d="M414.363,287.741v-.493h.1a2.9,2.9,0,0,0-.1.493" transform="translate(-154.188 -41.316)"/><path class="h" d="M414.363,286.3v-.493h.1v.493h-.1" transform="translate(-154.188 -40.369)"/><path class="s" d="M430.923,285.147v-.419h.1v.419h-.1" transform="translate(-165.073 -39.659)"/><path class="o" d="M414.363,285.1v-.37a2.049,2.049,0,0,0,.1.37h-.1" transform="translate(-154.188 -39.659)"/><path class="u" d="M253.587,285.353V285.3H256.3v.1c-.913-.025-1.826-.049-2.714-.049" transform="translate(-48.509 -40.038)"/><path class="s" d="M261.507,285.4v-.1h4.935v.1h-4.935" transform="translate(-53.715 -40.038)"/><path class="m" d="M275.907,285.4v-.1c.247,0,.493.025.74.049-.247,0-.493.025-.74.049" transform="translate(-63.18 -40.038)"/><path class="u" d="M511.347,285.353V285.3h2.714v.1c-.913-.025-1.826-.049-2.714-.049" transform="translate(-217.936 -40.038)"/><path class="s" d="M519.267,285.4v-.1H524.2v.1h-4.935" transform="translate(-223.142 -40.038)"/><path class="m" d="M533.667,285.4v-.1c.247,0,.493.025.74.049-.247,0-.493.025-.74.049" transform="translate(-232.607 -40.038)"/><path class="s" d="M253.415,284.224a1.9,1.9,0,0,0,.049.37v.049c-.074,0-.074,0-.049-.419" transform="translate(-48.386 -39.328)"/><path class="n" d="M261.882,278.349c-.247-.025-.493-.049-.74-.049h-7.649a1.906,1.906,0,0,1-.049-.37c.469-2.344,1.974-3.109,4.318-3.282a1.934,1.934,0,0,1,.345.049c.493-.025.987-.049,1.48-.049a5,5,0,0,1,3.306,1.308,2.261,2.261,0,0,1-.2,2.147c-.271.074-.543.148-.814.247" transform="translate(-48.414 -33.034)"/><path class="s" d="M511.175,284.008a2.721,2.721,0,0,0,.049.444v.049c-.074,0-.074,0-.049-.493" transform="translate(-217.813 -39.186)"/><path class="n" d="M519.642,278.349c-.247-.025-.493-.049-.74-.049h-7.649a2.72,2.72,0,0,1-.049-.444c.37-2.319,2.2-3.035,4.318-3.208a1.934,1.934,0,0,1,.345.049c.493-.025.987-.049,1.48-.049,1.555.2,2.862.345,3.479,1.9-.025.395-.025.395.049.395-.123.938-.3,1.209-1.234,1.406" transform="translate(-217.842 -33.034)"/><path class="n" d="M201.822,254.488a3.706,3.706,0,0,1,.494.049h.345c.37-.025.74-.049,1.135-.049,2.369.321,3.356.938,3.923,3.282v1.086c-.345,2.541-1.258,4.441-3.75,5.527-.716.148-1.431.3-2.147.469h-4.195c-.025-.592-.025-.592.493-5.724.493-2.615,1.036-4.071,3.7-4.639" transform="translate(-11.721 -19.782)"/><path class="k" d="M295.851,279.926v-.814a1.52,1.52,0,0,1,0,.814" transform="translate(-76.29 -35.968)"/><path class="k" d="M539.255,280.192a2.461,2.461,0,0,0,.049.395c-.074,0-.074,0-.049-.395" transform="translate(-236.27 -36.678)"/><path class="k" d="M553.611,279.994v-.666c.074,0,.074.666,0,.666" transform="translate(-245.717 -36.11)"/><path class="p" d="M266.043,274.553a1.454,1.454,0,0,1,.345-.049v.1a1.932,1.932,0,0,0-.345-.049" transform="translate(-56.697 -32.939)"/><path class="q" d="M267.051,274.6v-.1c.493,0,.987.025,1.48.049-.493,0-.987.025-1.48.049" transform="translate(-57.359 -32.939)"/><path class="q" d="M300.387,274.5h2.295v.1h-2.295v-.1" transform="translate(-79.271 -32.939)"/><path class="v" d="M360.363,274.553c.3-.025.592-.049.913-.049v.1c-.321-.025-.617-.049-.913-.049" transform="translate(-118.694 -32.939)"/><path class="q" d="M363.027,274.6v-.1h.666v.1h-.666" transform="translate(-120.445 -32.939)"/><path class="u" d="M364.971,274.6v-.1h.568a3.881,3.881,0,0,0-.568.1" transform="translate(-121.722 -32.939)"/><path class="o" d="M399.747,274.6v-.1h1.48v.1h-1.48" transform="translate(-144.581 -32.939)"/><path class="p" d="M523.8,274.553a1.454,1.454,0,0,1,.345-.049v.1a1.93,1.93,0,0,0-.345-.049" transform="translate(-226.124 -32.939)"/><path class="q" d="M524.811,274.6v-.1c.493,0,.987.025,1.48.049-.493,0-.987.025-1.48.049" transform="translate(-226.786 -32.939)"/><path class="u" d="M586.011,274.5h.321v.1h-.321v-.1" transform="translate(-267.013 -32.939)"/><path class="u" d="M638.571,274.5H640.2v.1h-1.628v-.1" transform="translate(-301.561 -32.939)"/><path class="w" d="M585.723,274.362c.148-.025.321-.049.493-.074v.074h-.493" transform="translate(-266.824 -32.797)"/><path class="o" d="M587.163,274.362v-.074c.617,0,1.258.025,1.9.049-.641,0-1.283,0-1.9.025" transform="translate(-267.771 -32.797)"/><path class="q" d="M465.483,273.113a3.037,3.037,0,0,1,.494-.049v.1a3.7,3.7,0,0,0-.494-.049" transform="translate(-187.79 -31.992)"/><path class="p" d="M466.923,273.163v-.1h.493v.1h-.493" transform="translate(-188.736 -31.992)"/><path class="o" d="M468.363,273.163v-.1a1.934,1.934,0,0,1,.345.049,1.454,1.454,0,0,0-.345.049" transform="translate(-189.683 -31.992)"/><path class="k" d="M612.761,271.552v.395c-.074,0-.074-.395,0-.395" transform="translate(-284.559 -30.999)"/><path class="e" d="M444.6,267.4v-.1h1.234v.1H444.6" transform="translate(-174.065 -28.206)"/><path class="e" d="M583.131,266.946c.123-.025.247-.049.395-.074v.074h-.395" transform="translate(-265.12 -27.922)"/><path class="k" d="M263.163,266.9a2.259,2.259,0,0,1,.419-.025v.074a2.742,2.742,0,0,0-.419-.049" transform="translate(-54.804 -27.922)"/><path class="g" d="M264.387,266.946v-.074a4.564,4.564,0,0,1,.568.025,4.043,4.043,0,0,0-.568.049" transform="translate(-55.608 -27.922)"/><path class="x" d="M266.331,266.9c.864-.025,1.727-.025,2.615-.025v.074c-.888-.025-1.752-.049-2.615-.049" transform="translate(-56.886 -27.922)"/><path class="g" d="M273.963,266.946v-.074h.493v.074h-.493" transform="translate(-61.902 -27.922)"/><path class="k" d="M275.4,266.946v-.074a2.539,2.539,0,0,1,.419.025,2.17,2.17,0,0,0-.419.049" transform="translate(-62.849 -27.922)"/><path class="e" d="M302.547,266.965c0-.074,0-.074,1.9-.049-.642,0-1.283.025-1.9.049" transform="translate(-80.691 -27.941)"/><path class="k" d="M323.643,266.872h.419v.074c-.148-.025-.3-.049-.419-.074" transform="translate(-94.557 -27.922)"/><path class="g" d="M324.867,266.946v-.074c.74,0,1.48,0,2.221.025-.74,0-1.48.025-2.221.049" transform="translate(-95.362 -27.922)"/><path class="e" d="M352.443,266.946c.123-.025.271-.049.419-.074v.074h-.419" transform="translate(-113.488 -27.922)"/><path class="k" d="M353.667,266.946v-.074c.3,0,.592,0,.913.025-.321,0-.617.025-.913.049" transform="translate(-114.292 -27.922)"/><path class="e" d="M396.363,266.946c.123-.025.271-.049.419-.074v.074h-.419" transform="translate(-142.357 -27.922)"/><path class="k" d="M397.587,266.946v-.074a6.017,6.017,0,0,1,.666.025,6.039,6.039,0,0,0-.666.049" transform="translate(-143.161 -27.922)"/><path class="g" d="M399.747,266.9c.888-.025,1.8-.025,2.714-.025v.074c-.913-.025-1.826-.049-2.714-.049" transform="translate(-144.581 -27.922)"/><path class="k" d="M407.667,266.946v-.074h.567v.074h-.567" transform="translate(-149.787 -27.922)"/><path class="e" d="M409.323,266.946v-.074c.1.025.222.049.345.074h-.345" transform="translate(-150.875 -27.922)"/><path class="x" d="M467.643,266.9c.345-.025.716-.025,1.086-.025v.074c-.37-.025-.74-.049-1.086-.049" transform="translate(-189.209 -27.922)"/><path class="g" d="M470.811,266.946v-.074h.641v.074h-.641" transform="translate(-191.292 -27.922)"/><path class="k" d="M472.683,266.946v-.074h.419v.074h-.419" transform="translate(-192.522 -27.922)"/><path class="e" d="M473.907,266.946v-.074c.1.025.2.049.321.074h-.321" transform="translate(-193.327 -27.922)"/><path class="k" d="M520.923,266.9a2.26,2.26,0,0,1,.419-.025v.074a2.741,2.741,0,0,0-.419-.049" transform="translate(-224.231 -27.922)"/><path class="g" d="M522.147,266.946v-.074a4.562,4.562,0,0,1,.567.025,4.043,4.043,0,0,0-.567.049" transform="translate(-225.035 -27.922)"/><path class="x" d="M524.091,266.9c.864-.025,1.727-.025,2.615-.025v.074c-.888-.025-1.752-.049-2.615-.049" transform="translate(-226.313 -27.922)"/><path class="g" d="M531.723,266.946v-.074h.493v.074h-.493" transform="translate(-231.33 -27.922)"/><path class="k" d="M533.163,266.946v-.074h.345v.074h-.345" transform="translate(-232.276 -27.922)"/><path class="e" d="M534.171,266.946v-.074c.1.025.2.049.321.074h-.321" transform="translate(-232.939 -27.922)"/><path class="k" d="M584.283,266.946v-.074h.666v.074h-.666" transform="translate(-265.878 -27.922)"/><path class="g" d="M586.227,266.946v-.074h6v.074h-6" transform="translate(-267.155 -27.922)"/><path class="k" d="M603.723,266.946v-.074c.345,0,.716,0,1.086.025-.37,0-.74.025-1.086.049" transform="translate(-278.656 -27.922)"/><path class="e" d="M616.467,266.965c0-.074,0-.074,1.9-.049-.642,0-1.283.025-1.9.049" transform="translate(-287.032 -27.941)"/><path class="k" d="M637.563,266.872h.419v.074c-.148-.025-.3-.049-.419-.074" transform="translate(-300.899 -27.922)"/><path class="g" d="M638.787,266.946v-.074c.74,0,1.48,0,2.221.025-.74,0-1.48.025-2.221.049" transform="translate(-301.703 -27.922)"/><path class="a" d="M396.967,224.464a1.7,1.7,0,0,1,.321.049h2.393a1.251,1.251,0,0,1,.321-.049,44.2,44.2,0,0,1,5.354.938c3.775,1.406,9.8,4.17,11.177,8.315v.592a2.83,2.83,0,0,1-2.295,2.369h-.74a3.5,3.5,0,0,1-1.456-.716c-3.9-4.811-8.784-7.9-15.076-8.414-.123-.025-.247-.049-.345-.074h-2.048c-.123.025-.222.049-.321.074a1.455,1.455,0,0,0-.345.049,21.034,21.034,0,0,0-15.52,9.228.683.683,0,0,1-.025-.222,24.7,24.7,0,0,1,11.523-10.462c2.221-.74,4.688-1.678,7.081-1.678" transform="translate(-130.525 -0.047)"/><path class="y" d="M480.891,260.1h.74v.1h-.74v-.1" transform="translate(-197.917 -23.474)"/><path class="z" d="M209.883,254.393a3.04,3.04,0,0,1,.493-.049v.1a3.706,3.706,0,0,0-.493-.049" transform="translate(-19.782 -19.688)"/><path class="aa" d="M211.323,254.443v-.1h.345v.1h-.345" transform="translate(-20.729 -19.688)"/><path class="z" d="M212.331,254.443v-.1c.37,0,.74.025,1.135.049-.395,0-.765.025-1.135.049" transform="translate(-21.391 -19.688)"/><path class="ab" d="M489.747,252.056v-.592c.074,0,.074.592,0,.592" transform="translate(-203.738 -17.795)"/><path class="ac" d="M203.4,247.913a3.036,3.036,0,0,1,.493-.049h.1a4.789,4.789,0,0,0-.592.049" transform="translate(-15.523 -15.428)"/><path class="ad" d="M204.843,247.758c0-.074,4.614-.074,4.614,0h-4.614" transform="translate(-16.469 -15.322)"/><path class="b" d="M424.731,233.322c.1-.025.2-.049.321-.074v.074h-.321" transform="translate(-161.003 -5.821)"/><path class="c" d="M425.667,233.322v-.074h.493v.074h-.493" transform="translate(-161.618 -5.821)"/><path class="ae" d="M427.107,233.322v-.074h1.061v.074h-1.061" transform="translate(-162.565 -5.821)"/><path class="c" d="M430.2,233.322v-.074h.493v.074H430.2" transform="translate(-164.6 -5.821)"/><path class="b" d="M431.643,233.322v-.074c.1.025.222.049.345.074h-.345" transform="translate(-165.546 -5.821)"/><path class="af" d="M432.651,224.417a1.3,1.3,0,0,1,.321-.025v.074a1.7,1.7,0,0,0-.321-.049" transform="translate(-166.209 0)"/><path class="ag" d="M433.587,224.466v-.074h.419v.074h-.419" transform="translate(-166.824 0)"/><path class="ah" d="M434.811,224.466v-.074h1.974v.074h-1.974" transform="translate(-167.629 0)"/><path class="ag" d="M440.571,224.466v-.074a1.518,1.518,0,0,1,.321.025,1.25,1.25,0,0,0-.321.049" transform="translate(-171.415 0)"/></g></svg>