<svg xmlns="http://www.w3.org/2000/svg" xmlns:xlink="http://www.w3.org/1999/xlink" width="430" height="285.47" viewBox="0 0 430 285.47"><defs><style>.a,.v{fill:#116ea0;}.b{fill:#f8f8f8;}.c{fill:#c0d7a1;}.d,.m{fill:#231f20;}.d{opacity:0.2;}.e{fill:#f4b9b1;}.f{fill:#e4dc7e;}.g{fill:#db605a;}.h{fill:#bea577;}.i{fill:#77b4be;}.j{fill:#d7c6a1;}.k{fill:#d7cda1;}.l{fill:#d2d3d1;}.m{opacity:0.09;}.n{fill:#efefef;}.o{fill:#aadf00;}.p{fill:#fff;}.q{fill:#adbcc3;}.r{fill:#78c1b0;}.s,.t{fill:none;}.s{stroke:#116ea0;stroke-width:7px;}.u,.v{stroke:none;}.w{filter:url(#g);}.x{filter:url(#e);}.y{filter:url(#c);}.z{filter:url(#a);}</style><filter id="a" x="235" y="12.47" width="195" height="197" filterUnits="userSpaceOnUse"><feOffset dy="3" input="SourceAlpha"/><feGaussianBlur stdDeviation="3" result="b"/><feFlood flood-opacity="0.161"/><feComposite operator="in" in2="b"/><feComposite in="SourceGraphic"/></filter><filter id="c" x="0" y="11.855" width="273.614" height="273.614" filterUnits="userSpaceOnUse"><feOffset dy="3" input="SourceAlpha"/><feGaussianBlur stdDeviation="3" result="d"/><feFlood flood-opacity="0.161"/><feComposite operator="in" in2="d"/><feComposite in="SourceGraphic"/></filter><filter id="e" x="210.258" y="0" width="75.211" height="39.915" filterUnits="userSpaceOnUse"><feOffset dy="3" input="SourceAlpha"/><feGaussianBlur stdDeviation="3" result="f"/><feFlood flood-opacity="0.161"/><feComposite operator="in" in2="f"/><feComposite in="SourceGraphic"/></filter><filter id="g" x="195.037" y="5.053" width="43.024" height="42.836" filterUnits="userSpaceOnUse"><feOffset dy="3" input="SourceAlpha"/><feGaussianBlur stdDeviation="3" result="h"/><feFlood flood-opacity="0.161"/><feComposite operator="in" in2="h"/><feComposite in="SourceGraphic"/></filter></defs><g transform="translate(-765 -157.53)"><g transform="translate(22 -3)"><g class="z" transform="matrix(1, 0, 0, 1, 743, 160.53)"><ellipse class="a" cx="88.5" cy="89.5" rx="88.5" ry="89.5" transform="translate(244 18.47)"/></g><g transform="translate(1091.705 227.852)"><path class="b" d="M830.829,2481.442l19.427-10.29L871.8,2476.3l-15.558,13.893Z" transform="translate(-827.825 -2449.849)"/><path class="c" d="M888.392,2364.355s.411.189,1.028.488c2.17,1.049,6.886,3.446,5.219,3.7-2.141.33-18.587,18.109-18.587,18.109l-26.689-11.149,21.377-19.267Z" transform="translate(-844.373 -2347.242)"/><path class="d" d="M1137.692,2473c.1-.3,7.571-.491,7.571-.491l-1.849-3.167-5.721-.338Z" transform="translate(-1101.823 -2447.929)"/><path class="b" d="M802.78,2372.3l31.5,10.027,1.471.468,7.128-21.988-22.124-4.573Z" transform="translate(-802.78 -2347.242)"/><path class="d" d="M832.172,2481.736l-1.344,1.645,24.78,8.048Z" transform="translate(-827.825 -2459.299)"/><path class="e" d="M823.321,2320.166s-5.7,3.89-5.105,4.22,26.093,10.827,26.093,10.827l17.262-15.968-23.78-12.463Z" transform="translate(-816.524 -2303.083)"/><path class="f" d="M891.71,2358.195l-1.6,5.921,34.673-2.356s-7.683-14.254-8.326-14.624-22.8.916-22.8.916Z" transform="translate(-880.76 -2339.054)"/><path class="g" d="M853.228,2317.371l-4.356,1.874,21.43,10.612,16.617-16.486-30.086-6.59Z" transform="translate(-843.936 -2303.083)"/><path class="b" d="M821.94,2293.243l14.818-9,30.394,9-22.737,12.416Z" transform="translate(-819.888 -2282.953)"/><path class="d" d="M1042.38,2427.35l2.141,1.284,9.473-7.448Z" transform="translate(-1016.719 -2405.233)"/><path class="d" d="M885.742,2370.613l14.462,8.48,4.7-3.184Z" transform="translate(-876.857 -2360.077)"/><path class="h" d="M880.815,2282.528l19.427-10.29,21.545,5.145-22.64,13.7Z" transform="translate(-872.458 -2272.238)"/><path class="e" d="M849.362,2484.238" transform="translate(-844.373 -2461.533)"/><path class="d" d="M856.681,2545.321l-1.74.979,23.524,8.115Z" transform="translate(-849.354 -2516.074)"/><path class="d" d="M886.037,2532.815l-.619,1.633-24.672-9.677Z" transform="translate(-854.538 -2497.726)"/></g><g transform="translate(1058.705 222.132)"><path class="b" d="M830.829,2477.75l12.612-6.6,13.986,3.3-10.1,8.907Z" transform="translate(-828.879 -2457.494)"/><path class="c" d="M874.7,2361.442s.267.121.667.313c1.408.672,4.47,2.209,3.388,2.374-1.39.212-12.066,11.61-12.066,11.61l-17.326-7.148,13.878-12.352Z" transform="translate(-846.123 -2350.47)"/><path class="d" d="M1137.692,2471.564a43.206,43.206,0,0,1,4.915-.315l-1.2-2.031-3.714-.217Z" transform="translate(-1114.407 -2455.491)"/><path class="b" d="M802.78,2366.538l20.449,6.429.955.3,4.628-14.1-14.362-2.932Z" transform="translate(-802.78 -2350.471)"/><path class="d" d="M831.7,2481.736l-.872,1.054,16.087,5.16Z" transform="translate(-828.879 -2467.351)"/><path class="e" d="M821.515,2315.363s-3.7,2.494-3.314,2.706,16.939,6.941,16.939,6.941l11.206-10.237-15.437-7.99Z" transform="translate(-817.103 -2304.41)"/><path class="f" d="M891.15,2354.2l-1.037,3.8,22.509-1.51s-4.988-9.139-5.4-9.376-14.8.587-14.8.587Z" transform="translate(-884.041 -2341.93)"/><path class="i" d="M851.7,2313.571l-2.828,1.2,13.912,6.8,10.787-10.569-19.531-4.225Z" transform="translate(-845.668 -2304.41)"/><path class="j" d="M821.94,2290.011l9.62-5.773,19.731,5.773-14.76,7.96Z" transform="translate(-820.608 -2283.414)"/><path class="d" d="M1042.38,2425.137l1.39.824,6.15-4.775Z" transform="translate(-1025.722 -2410.958)"/><path class="d" d="M885.742,2370.613l9.388,5.437,3.053-2.041Z" transform="translate(-879.974 -2363.858)"/><path class="e" d="M880.815,2278.835l12.612-6.6,13.986,3.3-14.7,8.786Z" transform="translate(-875.39 -2272.238)"/><path class="e" d="M849.362,2484.238" transform="translate(-846.123 -2469.681)"/><path class="d" d="M856.07,2545.321l-1.13.627,15.272,5.2Z" transform="translate(-851.314 -2526.57)"/><path class="d" d="M877.164,2529.928l-.4,1.047-16.017-6.2Z" transform="translate(-856.716 -2507.432)"/></g><g transform="translate(1018.545 242.869)"><path class="b" d="M830.829,2488.4l32.56-17.246,36.109,8.623-26.075,23.284Z" transform="translate(-825.794 -2437.601)"/><path class="j" d="M914.776,2369.842s.689.317,1.722.816c3.636,1.758,11.541,5.776,8.746,6.207-3.589.554-31.152,30.351-31.152,30.351l-44.73-18.687,35.829-32.291Z" transform="translate(-841 -2343.314)"/><path class="d" d="M1137.692,2475.7c.162-.5,12.688-.822,12.688-.822l-3.1-5.308-9.589-.566Z" transform="translate(-1077.575 -2435.837)"/><path class="b" d="M802.78,2383.164l52.793,16.806,2.465.785,11.947-36.852-37.079-7.664Z" transform="translate(-802.78 -2343.314)"/><path class="d" d="M833.081,2481.736l-2.252,2.756,41.532,13.489Z" transform="translate(-825.794 -2446.285)"/><path class="c" d="M826.8,2329.214s-9.55,6.519-8.556,7.073,43.732,18.145,43.732,18.145l28.93-26.762-39.855-20.888Z" transform="translate(-815.41 -2302.736)"/><path class="f" d="M892.79,2365.716l-2.677,9.923,58.111-3.949s-12.877-23.89-13.954-24.51-38.218,1.534-38.218,1.534Z" transform="translate(-874.437 -2335.791)"/><path class="i" d="M856.172,2324.53l-7.3,3.14,35.916,17.787,27.85-27.63-50.424-11.045Z" transform="translate(-840.599 -2302.735)"/><path class="k" d="M821.94,2299.33l24.836-15.091,50.94,15.091-38.106,20.809Z" transform="translate(-818.501 -2284.238)"/><path class="d" d="M1042.38,2431.516l3.588,2.153,15.877-12.483Z" transform="translate(-999.372 -2396.604)"/><path class="e" d="M849.362,2484.238" transform="translate(-841 -2448.338)"/><path class="d" d="M857.857,2545.321l-2.916,1.64,39.427,13.6Z" transform="translate(-845.578 -2498.457)"/><path class="d" d="M903.134,2538.252l-1.037,2.738-41.351-16.218Z" transform="translate(-850.341 -2481.596)"/></g><g transform="translate(752 178.386)"><g class="y" transform="matrix(1, 0, 0, 1, -9, -17.86)"><ellipse class="a" cx="127.807" cy="127.807" rx="127.807" ry="127.807" transform="translate(9 17.86)"/></g><g transform="translate(81.412 45.953)"><path class="l" d="M2154.628,1409.984l81.409-2.3,8.017,141.65-80.813-2.326Z" transform="translate(-2149.587 -1385.104)"/><path class="m" d="M2154.628,1435.042l81.409-2.3,4.446,134.3-77.595-.581Z" transform="translate(-2149.587 -1402.878)"/><g transform="translate(82.238 84.537)"><path class="g" d="M2456.559,1628.81a1.855,1.855,0,0,1-.282-.021c-.086-.013-8.743-1.319-17.33-2.672-18.05-2.844-18.152-3-18.583-3.656a.908.908,0,0,1-.016-.993,1.671,1.671,0,0,1,1.937-.529,1.621,1.621,0,0,1,.222.1c2.383.64,22.144,3.724,34.33,5.562.788.119,1.3.7,1.146,1.309A1.411,1.411,0,0,1,2456.559,1628.81Z" transform="translate(-2420.208 -1620.831)"/></g><rect class="n" width="86.449" height="173.845" transform="translate(0)"/><rect class="o" width="86.449" height="22.581" transform="translate(0)"/><rect class="p" width="22.454" height="22.454" transform="translate(9.959 35.701)"/><rect class="p" width="22.454" height="22.454" transform="translate(9.959 68.608)"/><rect class="p" width="22.454" height="22.454" transform="translate(9.959 101.516)"/><rect class="p" width="22.454" height="22.454" transform="translate(9.959 134.424)"/><g transform="translate(38.216 39.196)"><rect class="q" width="39.118" height="0.872"/><g transform="translate(0 4.36)"><rect class="q" width="39.118" height="0.872"/></g><g transform="translate(0 8.72)"><rect class="q" width="39.118" height="0.872"/></g><g transform="translate(0 13.08)"><rect class="q" width="39.118" height="0.872"/></g></g><g transform="translate(37.635 72.552)"><rect class="q" width="39.118" height="0.872"/><g transform="translate(0 4.36)"><rect class="q" width="39.118" height="0.872"/></g><g transform="translate(0 8.72)"><rect class="q" width="39.118" height="0.872"/></g><g transform="translate(0 13.08)"><rect class="q" width="39.118" height="0.872"/></g></g><g transform="translate(37.925 105.151)"><rect class="q" width="39.118" height="0.872"/><g transform="translate(0 4.36)"><rect class="q" width="39.118" height="0.872"/></g><g transform="translate(0 8.72)"><rect class="q" width="39.118" height="0.872"/></g><g transform="translate(0 13.08)"><rect class="q" width="39.118" height="0.872"/></g></g><g transform="translate(37.344 138.507)"><rect class="q" width="39.118" height="0.872"/><g transform="translate(0 4.36)"><rect class="q" width="39.118" height="0.872"/></g><g transform="translate(0 8.72)"><rect class="q" width="39.118" height="0.872"/></g><g transform="translate(0 13.08)"><rect class="q" width="39.118" height="0.872"/></g></g><g transform="translate(11.698 35.651)"><path class="o" d="M2354.406,1470.235a8.793,8.793,0,1,1,8.793-8.792A8.8,8.8,0,0,1,2354.406,1470.235Zm0-14.953a6.161,6.161,0,1,0,6.161,6.161A6.168,6.168,0,0,0,2354.406,1455.281Z" transform="translate(-2345.613 -1452.649)"/><g transform="translate(3.481 0.028)"><path class="o" d="M2362.961,1467.88l-5.372-6.589,2.04-1.663,3.212,3.939,7.865-10.821,2.129,1.547Z" transform="translate(-2357.59 -1452.746)"/></g></g><g transform="translate(12.354 71.039)"><path class="g" d="M2356.667,1591.986a8.8,8.8,0,1,1,8.8-8.8A8.807,8.807,0,0,1,2356.667,1591.986Zm0-14.96a6.164,6.164,0,1,0,6.163,6.164A6.143,6.143,0,0,0,2356.667,1577.026Z" transform="translate(-2347.87 -1574.392)"/><g transform="translate(4.142 4.969)"><rect class="g" width="1.915" height="10.007" transform="translate(0 1.436) rotate(-48.556)"/></g><g transform="translate(4.382 5.011)"><rect class="g" width="10.007" height="1.915" transform="translate(0 6.623) rotate(-41.444)"/></g></g><g transform="translate(86.363 27.199)"><line class="r" y1="15.405" x2="21.981" transform="translate(0.086 0.952)"/><path class="o" d="M2434.572,1440.881l-.172-2.2,21.4-15.115,1.335,1.9Z" transform="translate(-2434.4 -1423.571)"/></g><rect class="o" width="29.647" height="10.9" transform="translate(106.396 19.431)"/><rect class="g" width="29.647" height="10.9" transform="translate(111.192 85.613)"/><g transform="translate(84.16 141.478)"><line class="r" y1="3.4" x2="26.626" transform="translate(0.367 1.153)"/><path class="o" d="M2426.822,1822.16l.869-2.023,25.976-3.414.295,2.307Z" transform="translate(-2426.822 -1816.724)"/></g><rect class="o" width="29.647" height="5.45" transform="translate(105.411 139.379)"/><rect class="o" width="29.647" height="5.45" transform="translate(105.411 154.154)"/><rect class="o" width="29.647" height="5.45" transform="translate(105.411 146.766)"/><g transform="translate(11.698 103.915)"><path class="o" d="M2354.406,1705.081a8.793,8.793,0,1,1,8.793-8.793A8.8,8.8,0,0,1,2354.406,1705.081Zm0-14.953a6.161,6.161,0,1,0,6.161,6.161A6.168,6.168,0,0,0,2354.406,1690.127Z" transform="translate(-2345.613 -1687.495)"/><g transform="translate(3.481 0.028)"><path class="o" d="M2362.961,1702.726l-5.372-6.589,2.04-1.663,3.212,3.94,7.865-10.822,2.129,1.548Z" transform="translate(-2357.59 -1687.592)"/></g></g><g transform="translate(11.698 137.008)"><path class="o" d="M2354.406,1818.93a8.793,8.793,0,1,1,8.793-8.793A8.8,8.8,0,0,1,2354.406,1818.93Zm0-14.954a6.161,6.161,0,1,0,6.161,6.161A6.168,6.168,0,0,0,2354.406,1803.976Z" transform="translate(-2345.613 -1801.344)"/><g transform="translate(3.481 0.028)"><path class="o" d="M2362.961,1816.575l-5.372-6.589,2.04-1.663,3.212,3.94,7.865-10.821,2.129,1.547Z" transform="translate(-2357.59 -1801.441)"/></g></g></g></g><g class="x" transform="matrix(1, 0, 0, 1, 743, 160.53)"><path class="s" d="M51.815,16.406C33.8-9.347,7.151,1.079,0,8.542" transform="translate(221.79 9.5)"/></g><g class="w" transform="matrix(1, 0, 0, 1, 743, 160.53)"><g class="t" transform="matrix(0.67, -0.74, 0.74, 0.67, 204.04, 23.23)"><path class="u" d="M16.383,0,0,9.46l16.383,9.461Z"/><path class="v" d="M 16.38339996337891 0 L 16.38339996337891 18.92092323303223 L 0 9.460048675537109 L 16.38339996337891 0 Z"/></g></g></g></g></svg>